<svg xmlns="http://www.w3.org/2000/svg" viewBox="0 0 128 128" role="img" aria-labelledby="avatarTitle avatarDesc">
  <title id="avatarTitle">Avatar KUTEIMO</title>
  <desc id="avatarDesc">Personaje pixel art: desarrollador con gafas y sudadera edtech</desc>
  <!-- Fondo marco -->
  <rect width="128" height="128" rx="8" fill="#161b2e"/>
  <rect x="4" y="4" width="120" height="120" rx="6" fill="#0f1222" stroke="#00c9ad" stroke-width="3"/>
  <!-- Sombra suelo -->
  <rect x="36" y="108" width="56" height="8" fill="#252b42" rx="2"/>
  <!-- Cuerpo sudadera -->
  <rect x="40" y="72" width="48" height="36" fill="#00a896"/>
  <rect x="44" y="76" width="40" height="28" fill="#00c9ad"/>
  <!-- Logo K mini -->
  <rect x="56" y="84" width="4" height="16" fill="#161b2e"/>
  <rect x="56" y="84" width="12" height="4" fill="#161b2e"/>
  <rect x="64" y="88" width="4" height="8" fill="#161b2e"/>
  <rect x="60" y="92" width="8" height="4" fill="#161b2e"/>
  <!-- Cuello -->
  <rect x="52" y="64" width="24" height="12" fill="#e8b896"/>
  <!-- Cabeza -->
  <rect x="44" y="28" width="40" height="40" fill="#e8b896"/>
  <rect x="40" y="32" width="8" height="24" fill="#3d2f5c"/>
  <rect x="80" y="32" width="8" height="24" fill="#3d2f5c"/>
  <rect x="48" y="24" width="32" height="12" fill="#3d2f5c"/>
  <!-- Gafas -->
  <rect x="48" y="44" width="14" height="10" fill="#161b2e" opacity="0.85"/>
  <rect x="66" y="44" width="14" height="10" fill="#161b2e" opacity="0.85"/>
  <rect x="50" y="46" width="10" height="6" fill="#7ec8ff"/>
  <rect x="68" y="46" width="10" height="6" fill="#7ec8ff"/>
  <rect x="62" y="48" width="4" height="2" fill="#161b2e"/>
  <!-- Ojos -->
  <rect x="52" y="48" width="4" height="4" fill="#161b2e"/>
  <rect x="72" y="48" width="4" height="4" fill="#161b2e"/>
  <!-- Sonrisa -->
  <rect x="54" y="58" width="20" height="4" fill="#c97b6b"/>
  <rect x="56" y="56" width="16" height="2" fill="#161b2e" opacity="0.3"/>
  <!-- Brazos -->
  <rect x="32" y="76" width="12" height="20" fill="#00a896"/>
  <rect x="84" y="76" width="12" height="20" fill="#00a896"/>
  <!-- Mano tablet/libro -->
  <rect x="88" y="88" width="16" height="12" fill="#e8a838"/>
  <rect x="90" y="90" width="12" height="8" fill="#f5e6c8"/>
  <rect x="92" y="92" width="4" height="2" fill="#00c9ad"/>
  <rect x="98" y="92" width="2" height="2" fill="#00c9ad"/>
  <!-- Destello edtech -->
  <rect x="8" y="12" width="6" height="6" fill="#e8a838"/>
  <rect x="114" y="20" width="6" height="6" fill="#00c9ad"/>
</svg>
